<svg id="Laag_1" data-name="Laag 1" xmlns="http://www.w3.org/2000/svg" viewBox="0 0 1200 1200"><defs><style>.cls-1{fill:#28a745;}</style></defs><path class="cls-1" d="M600,35.68A561.37,561.37,0,0,1,915.49,132,566.2,566.2,0,0,1,1120,380.35a563.46,563.46,0,0,1-52,535.14A566.2,566.2,0,0,1,819.65,1120a563.46,563.46,0,0,1-535.14-52A566.2,566.2,0,0,1,80,819.65a563.46,563.46,0,0,1,52-535.14A566.2,566.2,0,0,1,380.35,80,560.88,560.88,0,0,1,600,35.68m0-35C269,.68.68,269,.68,600S269,1199.32,600,1199.32,1199.32,931,1199.32,600,931,.68,600,.68Z"/><path class="cls-1" d="M970.9,559.65v37.48c-.45,2.31-.95,4.6-1.34,6.92-2.33,13.94-3.72,28.1-7.09,41.78-17.81,72.35-58,130.63-117.08,174.68-112.86,84.1-237.77,102.11-371.73,62.07-8.61-2.58-13.7-1.2-20.08,4.5a223.67,223.67,0,0,1-98.43,51.47c-14.16,3.39-28.73,5-43.12,7.48H293.29c-7.33-3-13.47-7-16.09-15.16-3.48-10.86,2-18.32,8.61-25.76,29.05-32.83,40.21-70.79,32.06-114.05a23.14,23.14,0,0,0-5.07-10.64c-42.56-48-69.57-103.09-77.57-167.07-.86-6.85-1.67-13.7-2.5-20.54V559.65a63.45,63.45,0,0,0,1.3-6.9c3.57-42,15.59-81.59,36.91-117.85,58.79-100,148.58-154.42,260.77-175,15-2.77,30.39-4,45.6-5.89h46.13c7.6.9,15.19,1.82,22.79,2.69,86.31,9.9,162.45,42.6,226.06,102.33,46.84,44,78.64,97.06,92.22,160.3C967.37,532.61,968.81,546.2,970.9,559.65ZM430.6,643.22c35.42-.34,64.64-29.79,64.48-65-.17-35.35-29.55-64.66-64.81-64.66-35.56,0-65.36,30-64.84,65.35C366,614.43,395.45,643.55,430.6,643.22Zm172.9,0c35.39-.24,64.65-29.64,64.58-64.89s-29.37-64.64-64.7-64.76c-35.49-.13-65.36,29.88-65,65.24S568.33,643.45,603.5,643.22Zm237.59-64.6c.23-35.18-29-64.65-64.41-65-35.11-.41-64.65,28.69-65.24,64.23-.58,35.29,29.2,65.37,64.78,65.42C811.47,643.26,840.87,614,841.09,578.62Z"/></svg>