<svg id="Laag_1" data-name="Laag 1" xmlns="http://www.w3.org/2000/svg" viewBox="0 0 1200 1200"><defs><style>.cls-1{fill:#28a745;}</style></defs><path class="cls-1" d="M600,35.68A561.37,561.37,0,0,1,915.49,132,566.2,566.2,0,0,1,1120,380.35a563.46,563.46,0,0,1-52,535.14A566.2,566.2,0,0,1,819.65,1120a563.46,563.46,0,0,1-535.14-52A566.2,566.2,0,0,1,80,819.65a563.46,563.46,0,0,1,52-535.14A566.2,566.2,0,0,1,380.35,80,560.88,560.88,0,0,1,600,35.68m0-35C269,.68.68,269,.68,600S269,1199.32,600,1199.32,1199.32,931,1199.32,600,931,.68,600,.68Z"/><path class="cls-1" d="M223.55,955.46c13.71-50.19,27-98.85,40.32-147.52,3.65-13.37,7.58-26.67,10.8-40.15a16.69,16.69,0,0,0-1.21-11C238.18,692.74,222,624,227.53,551.27c9.26-122.62,65.72-219.13,167.4-288,67.8-46,143.85-67.16,225.48-61.25,147.84,10.69,257.35,83.32,319.21,217.53,60.35,130.93,45.82,259.29-38.33,376.74-60.45,84.38-144.48,133.62-247.37,149-79.61,11.88-155.26-1.79-226.88-38.45a18.07,18.07,0,0,0-11.73-1.06c-61,15.73-122,31.77-183,47.72C229.88,954.06,227.38,954.57,223.55,955.46Zm89.77-88.87c2.32-.44,3.33-.56,4.3-.82,34.4-9,68.84-17.93,103.16-27.26,7.06-1.92,12.64-1.14,19,2.67,69.06,41.15,143.47,54.73,222.11,38.62C828.26,845.73,935,688.5,906.55,521.3,882.39,379.35,759.77,270.67,616.32,264.62c-79.33-3.34-150.67,19.39-212,69.94-70.1,57.76-108.37,132.76-114,223.45-4.13,66.77,12.66,128.71,48.77,185.13,4.18,6.52,5,12.11,2.88,19.57C332.17,796.86,323,831.19,313.32,866.59Z"/><path class="cls-1" d="M478.93,403c17-4.4,24.69,5.94,30.39,20.77,8.34,21.71,17.55,43.1,26.72,64.49,3.08,7.2,3,13.68-1.67,19.95-7.5,10.08-14.81,20.32-22.73,30.05-5,6.12-5.76,11.65-1.68,18.55,30.52,51.6,73.29,88.86,129.09,111.05,7.25,2.89,13.23,1.78,18.2-4.39,9.52-11.83,19.41-23.38,28.51-35.51,5.29-7.05,11.46-9.2,19.07-5.64,26.51,12.41,53,24.9,79.13,38.07,3.17,1.6,5.93,7.58,5.87,11.47-.68,39.66-12.34,58.81-55,76.66-24.11,10.1-49.09,7.62-73.91.7-89.83-25-156-81.52-209.09-155.89C435.2,570,420.14,545.82,413.8,517.4c-9-40.5,1-75.6,30.82-104.8C454,403.38,465.44,401.14,478.93,403Z"/></svg>