<svg id="Laag_1" data-name="Laag 1" xmlns="http://www.w3.org/2000/svg" viewBox="0 0 1200 1200"><defs><style>.cls-1{fill:#28a745;}</style></defs><g id="Path_180" data-name="Path 180"><path class="cls-1" d="M496.6,975.25,125.79,604.44,260.14,470.09l232.1,232.09c122.67-130.22,386.3-408.7,562.59-585l134.34,134.36c-233,232.94-621.57,647.83-625.47,652Z"/></g><path class="cls-1" d="M1127.59,399.37a563.53,563.53,0,0,1-59.54,516.44,566.2,566.2,0,0,1-248.31,204.5,563.46,563.46,0,0,1-535.14-52A566,566,0,0,1,80.1,820a563.54,563.54,0,0,1,52-535.14A566.28,566.28,0,0,1,380.44,80.33a563.46,563.46,0,0,1,535.14,52q11.85,8,23.32,16.64,12.54-12.78,24.77-25.15A596.66,596.66,0,0,0,600.09,1C269.09,1,.77,269.32.77,600.32s268.32,599.32,599.32,599.32,599.32-268.33,599.32-599.32a597.66,597.66,0,0,0-45-228.31Q1141.13,385.5,1127.59,399.37Z"/></svg>