<svg id="Laag_1" data-name="Laag 1" xmlns="http://www.w3.org/2000/svg" viewBox="0 0 1200 1200"><defs><style>.cls-1{fill:#28a745;}</style></defs><path class="cls-1" d="M602,34.62A561.46,561.46,0,0,1,917.52,131,566,566,0,0,1,1122,379.29a563.54,563.54,0,0,1-52,535.14,566.13,566.13,0,0,1-248.32,204.5,563.5,563.5,0,0,1-535.14-52A566,566,0,0,1,82,818.59a563.54,563.54,0,0,1,52-535.14A567.35,567.35,0,0,1,286.53,131,561.46,561.46,0,0,1,602,34.62m0-35C271-.38,2.71,267.94,2.71,598.94S271,1198.26,602,1198.26s599.32-268.33,599.32-599.32S933-.38,602-.38Z"/><path id="Icon_zocial-email" data-name="Icon zocial-email" class="cls-1" d="M150.31,848.64V349.47q0-.86,2.59-16.46L446.7,584.46,153.76,866a73.29,73.29,0,0,1-3.59-17.33Zm39-550.32a37.36,37.36,0,0,1,14.74-2.59H995.26a49,49,0,0,1,15.6,2.59L716.09,550.49l-39,31.2L599.94,645,522.8,581.69l-39-31.2Zm.87,601.44L485.63,616.38,600,709.13,714.4,616.38l295.52,283.38a41.83,41.83,0,0,1-14.73,2.59H204.05A39.39,39.39,0,0,1,190.18,899.76Zm563.29-315.3,292.94-251.63a51.7,51.7,0,0,1,2.59,16.46V848.64a66.5,66.5,0,0,1-2.59,17.33Z"/></svg>