<svg id="Laag_1" data-name="Laag 1" xmlns="http://www.w3.org/2000/svg" viewBox="0 0 1200 1200"><defs><style>.cls-1{fill:#28a745;}</style></defs><path class="cls-1" d="M602,34.62A561.46,561.46,0,0,1,917.52,131,566,566,0,0,1,1122,379.29a563.54,563.54,0,0,1-52,535.14,566.13,566.13,0,0,1-248.32,204.5,563.5,563.5,0,0,1-535.14-52A566,566,0,0,1,82,818.59a563.54,563.54,0,0,1,52-535.14A567.35,567.35,0,0,1,286.53,131,561.46,561.46,0,0,1,602,34.62m0-35C271-.38,2.71,267.94,2.71,598.94S271,1198.26,602,1198.26s599.32-268.33,599.32-599.32S933-.38,602-.38Z"/><path id="Icon_ionic-ios-call" data-name="Icon ionic-ios-call" class="cls-1" d="M964.34,818.61a646.36,646.36,0,0,0-135-90.36c-40.49-19.43-55.42-19-84,1.6-23.83,17.24-39.28,33.25-66.71,27.24s-81.56-46.89-134-99.19-93.41-106.56-99.2-134.11,10.22-42.89,27.25-66.72c20.62-28.66,21.24-43.47,1.6-84a633.9,633.9,0,0,0-90.36-134.94c-29.47-29.46-36.06-23-52.34-17.24a297.13,297.13,0,0,0-47.88,25.46,144.44,144.44,0,0,0-57.48,60.68c-11.42,24.63-24.63,70.54,42.67,190.36A1062.21,1062.21,0,0,0,455.61,746.5h0l.22.22.21.21h0A1066.08,1066.08,0,0,0,705.11,933.69c119.77,67.3,165.67,54,190.3,42.67a141.9,141.9,0,0,0,60.68-57.54A297.46,297.46,0,0,0,981.55,871C987.37,854.69,994,848.07,964.34,818.61Z"/></svg>